HIERARCHY
ROOT SpineBase
{
  OFFSET 0.000000 0.000000 0.000000
  CHANNELS 6 Xposition Yposition Zposition Zrotation Xrotation Yrotation
  JOINT SpineMid
  {
    OFFSET 0.000000 29.278546 0.000000
    CHANNELS 3 Zrotation Xrotation Yrotation
    JOINT SpineShoulder
    {
      OFFSET 0.474889 21.994653 -0.921074
      CHANNELS 3 Zrotation Xrotation Yrotation
      JOINT Neck
      {
        OFFSET 0.159452 7.247022 -0.704279
        CHANNELS 3 Zrotation Xrotation Yrotation
        JOINT Head
        {
          OFFSET 4.878138 13.412204 0.870125
          CHANNELS 3 Zrotation Xrotation Yrotation
          End Site
          {
            OFFSET 0 0 0
          }
        }
      }
      JOINT ShoulderLeft
      {
        OFFSET -9.862050 -2.791991 -12.616357
        CHANNELS 3 Zrotation Xrotation Yrotation
        JOINT ElbowLeft
        {
          OFFSET -2.493030 -24.103338 -5.611617
          CHANNELS 3 Zrotation Xrotation Yrotation
          JOINT WristLeft
          {
            OFFSET 10.995219 -20.487001 -2.318250
            CHANNELS 3 Zrotation Xrotation Yrotation
            JOINT HandLeft
            {
              OFFSET 0.520819 -3.789328 2.683023
              CHANNELS 3 Zrotation Xrotation Yrotation
              JOINT HandTipLeft
              {
                OFFSET 3.496745 -5.778730 -1.583889
                CHANNELS 3 Zrotation Xrotation Yrotation
                End Site
                {
                  OFFSET 0 0 0
                }
              }
              JOINT ThumbLeft
              {
                OFFSET 5.122551 2.916429 4.411880
                CHANNELS 3 Zrotation Xrotation Yrotation
                End Site
                {
                  OFFSET 0 0 0
                }
              }
            }
          }
        }
      }
      JOINT ShoulderRight
      {
        OFFSET 11.824506 -5.231641 9.070033
        CHANNELS 3 Zrotation Xrotation Yrotation
        JOINT ElbowRight
        {
          OFFSET 1.233215 -27.137131 4.456336
          CHANNELS 3 Zrotation Xrotation Yrotation
          JOINT WristRight
          {
            OFFSET 1.849710 -23.751963 -10.697089
            CHANNELS 3 Zrotation Xrotation Yrotation
            JOINT HandRight
            {
              OFFSET -2.546499 -2.875287 1.110524
              CHANNELS 3 Zrotation Xrotation Yrotation
              JOINT HandTipRight
              {
                OFFSET -1.297632 -3.199221 -0.567857
                CHANNELS 3 Zrotation Xrotation Yrotation
                End Site
                {
                  OFFSET 0 0 0
                }
              }
              JOINT ThumbRight
              {
                OFFSET 2.500754 0.420511 -1.513379
                CHANNELS 3 Zrotation Xrotation Yrotation
                End Site
                {
                  OFFSET 0 0 0
                }
              }
            }
          }
        }
      }
    }
  }
  JOINT HipLeft
  {
    OFFSET -4.868818 1.932010 -7.950812
    CHANNELS 3 Zrotation Xrotation Yrotation
    JOINT KneeLeft
    {
      OFFSET -7.611514 -26.956724 -0.444606
      CHANNELS 3 Zrotation Xrotation Yrotation
      JOINT AnkleLeft
      {
        OFFSET -7.152880 -33.453795 5.750322
        CHANNELS 3 Zrotation Xrotation Yrotation
        JOINT FootLeft
        {
          OFFSET 4.336820 -6.728733 0.935474
          CHANNELS 3 Zrotation Xrotation Yrotation
          End Site
          {
            OFFSET 0 0 0
          }
        }
      }
    }
  }
  JOINT HipRight
  {
    OFFSET 5.437815 0.031171 0.987842
    CHANNELS 3 Zrotation Xrotation Yrotation
    JOINT KneeRight
    {
      OFFSET -2.883371 -27.251873 6.167009
      CHANNELS 3 Zrotation Xrotation Yrotation
      JOINT AnkleRight
      {
        OFFSET -11.584750 -32.151287 2.049811
        CHANNELS 3 Zrotation Xrotation Yrotation
        JOINT FootRight
        {
          OFFSET 2.025964 -8.211191 -4.938003
          CHANNELS 3 Zrotation Xrotation Yrotation
          End Site
          {
            OFFSET 0 0 0
          }
        }
      }
    }
  }
}
MOTION
Frames: 16
Frame Time: 0.033333
-27.796667 85.315308 325.689200 -0.000000 0.000000 -40.934184 -0.000000 0.000000 40.934184 -0.000000 0.000000 0.000000 -0.000000 0.000000 0.000000 0.000000 0.000000 0.000000 -0.000000 0.000000 0.000000 -0.000000 0.000000 0.000000 -0.000000 0.000000 0.000000 -0.000000 0.000000 0.000000 0.000000 0.000000 0.000000 0.000000 0.000000 0.000000 -0.000000 0.000000 0.000000 -0.000000 0.000000 0.000000 -0.000000 0.000000 0.000000 -0.000000 0.000000 0.000000 0.000000 0.000000 0.000000 0.000000 0.000000 0.000000 -0.000000 0.000000 40.934184 -0.000000 0.000000 0.000000 -0.000000 0.000000 0.000000 0.000000 0.000000 0.000000 -0.000000 0.000000 40.934184 -0.000000 0.000000 0.000000 -0.000000 0.000000 0.000000 0.000000 0.000000 0.000000
-27.902965 85.284053 325.067022 -0.240526 0.666254 -41.118443 0.619350 -0.343736 41.121699 -0.000000 0.000000 0.000000 -0.000000 0.000000 0.000000 0.000000 0.000000 0.000000 -0.000000 0.000000 0.000000 -4.085094 -0.378409 0.250761 4.178212 6.064577 0.577841 -5.778848 -12.774927 -4.790014 0.000000 0.000000 0.000000 0.000000 0.000000 0.000000 -0.283615 2.413029 0.069320 0.589026 -7.073274 -0.544315 1.709196 8.045650 -1.950547 -1.337759 1.146609 0.217353 0.000000 0.000000 0.000000 0.000000 0.000000 0.000000 1.888193 -1.017804 41.507882 -0.503698 1.345518 -0.365191 -0.962076 0.282176 0.050773 0.000000 0.000000 0.000000 1.645495 -0.995110 41.334567 -0.340427 1.166718 -0.197412 -1.293168 0.923594 1.013902 0.000000 0.000000 0.000000
-27.967356 85.251234 324.524883 -0.438697 1.219568 -41.261454 0.480824 0.302155 41.251194 0.045938 -0.240576 0.016850 -0.167927 -0.888965 0.001936 0.000000 0.000000 0.000000 -0.167927 -0.888965 0.001936 -7.741024 -0.652337 0.501576 7.601280 11.421324 0.839298 -11.718780 -23.206599 -10.303359 0.000000 0.000000 0.000000 0.000000 0.000000 0.000000 -0.668680 3.455787 0.129270 0.936732 -13.569851 -0.985232 4.374558 15.973176 -4.396677 -3.470497 0.405505 0.857404 0.000000 0.000000 0.000000 0.000000 0.000000 0.000000 3.455234 -1.872360 42.006188 -0.892973 2.477476 -0.663907 -1.739247 0.573692 0.138095 0.000000 0.000000 0.000000 3.034748 -1.886711 41.680504 -0.582921 2.203818 -0.355259 -2.374637 1.618867 1.854821 0.000000 0.000000 0.000000
-27.989840 85.216848 324.062780 -0.594595 1.660162 -41.365238 0.642730 0.432749 41.355625 0.057288 -0.299284 0.022515 -0.231083 -1.260768 0.002738 0.000000 0.000000 0.000000 -0.231083 -1.260768 0.002738 -11.007380 -0.825383 0.767181 10.331031 16.023358 0.819223 -17.448325 -31.174709 -15.935528 0.000000 0.000000 0.000000 0.000000 0.000000 0.000000 -0.883450 4.552228 0.180239 1.033390 -19.355874 -1.352898 8.146098 23.333342 -7.445668 -6.181469 -1.192980 1.358973 0.000000 0.000000 0.000000 0.000000 0.000000 0.000000 4.700427 -2.574529 42.417132 -1.172788 3.398067 -0.902560 -2.330350 0.873761 0.260608 0.000000 0.000000 0.000000 4.160885 -2.678992 41.962001 -0.727472 3.106399 -0.476252 -3.240012 2.098659 2.515645 0.000000 0.000000 0.000000
-27.970417 85.180897 323.680716 -0.708304 1.988332 -41.431182 0.753418 0.548128 41.423563 0.060977 -0.316311 0.026038 -0.280376 -1.584198 0.003729 0.000000 0.000000 0.000000 -1.074355 -1.598530 0.167826 -13.135126 -0.844599 0.882585 12.417764 19.867281 0.536042 -22.424804 -36.934815 -20.958478 0.000000 0.000000 0.000000 0.000000 0.000000 0.000000 -1.019224 5.248026 0.219004 0.867920 -24.308896 -1.671030 13.056379 29.663872 -11.102447 -9.252283 -3.000340 1.405816 0.000000 0.000000 0.000000 0.000000 0.000000 0.000000 5.623391 -3.133561 42.731334 -1.346975 4.109672 -1.086079 -2.735038 1.181999 0.416762 0.000000 0.000000 0.000000 5.018410 -3.375596 42.170514 -0.774358 3.870871 -0.562677 -3.887147 2.373702 2.991936 0.000000 0.000000 0.000000
-27.909087 85.143381 323.378690 -0.779900 2.204394 -41.460008 0.813626 0.647483 41.454412 0.057053 -0.291317 0.027274 -0.315808 -1.859308 0.005089 0.000000 0.000000 0.000000 -1.701977 -1.908292 0.286812 -15.156903 -0.747983 1.090970 13.898942 22.973165 -0.008454 -26.052193 -40.899030 -24.618319 0.000000 0.000000 0.000000 0.000000 0.000000 0.000000 -1.075824 5.551694 0.244606 0.434015 -28.327639 -1.953792 18.923384 34.592650 -15.185426 -12.441569 -4.563846 0.874109 0.000000 0.000000 0.000000 0.000000 0.000000 0.000000 6.223727 -3.556665 42.941563 -2.249538 4.445088 -1.254094 -2.131798 1.680771 0.714875 0.000000 0.000000 0.000000 5.603109 -3.979328 42.298887 -0.724113 4.494790 -0.616317 -4.315314 2.451837 3.281152 0.000000 0.000000 0.000000
-27.735623 85.080763 323.136412 -0.720060 2.288565 -41.428667 0.750538 0.751642 41.423099 0.044975 -0.183331 0.027827 -0.385385 -2.171862 0.003029 0.000000 0.000000 0.000000 -2.645641 -2.243116 0.448367 -17.129935 -0.449129 1.427484 14.737796 27.058448 -0.940339 -27.244609 -45.173669 -26.734547 0.000000 0.000000 0.000000 0.000000 0.000000 0.000000 -0.941593 4.843595 0.246307 -0.524779 -31.399547 -2.262693 27.958579 39.877999 -22.780356 -17.343399 -8.092241 0.840118 0.000000 0.000000 0.000000 0.000000 0.000000 0.000000 6.302302 -4.036213 43.031033 -2.162632 4.601938 -1.324793 -2.169602 2.352932 1.032028 0.000000 0.000000 0.000000 5.802586 -4.704007 42.304797 -0.447029 5.080603 -0.625245 -4.429020 2.148845 3.271609 0.000000 0.000000 0.000000
-27.555124 85.035565 322.996675 -0.669354 2.263337 -41.439244 0.704520 0.872397 41.435380 0.058408 -0.030797 0.030918 0.358739 -1.860999 -0.232658 0.000000 0.000000 0.000000 -3.562834 -2.432900 0.578216 -18.537816 -0.126746 1.786277 15.145217 30.053250 -1.850052 -23.569086 -47.997472 -24.796579 0.000000 0.000000 0.000000 0.000000 0.000000 0.000000 -0.811340 4.079967 0.245241 -1.375282 -34.976681 -2.718265 37.857096 47.348656 -36.923856 -13.147749 -21.133941 8.972011 0.000000 0.000000 0.000000 0.000000 0.000000 0.000000 6.165562 -4.261040 43.076909 -1.905504 4.392492 -1.294466 -2.559115 3.304433 1.378940 0.000000 0.000000 0.000000 5.939455 -5.156798 42.353205 -0.290005 5.533307 -0.644385 -4.195820 1.627032 2.986276 0.000000 0.000000 0.000000
-27.346827 85.003946 322.979720 -0.564441 2.111346 -41.700935 0.632820 0.971847 41.699149 0.053336 0.169238 0.031446 0.247231 -1.852641 -0.305412 0.000000 0.000000 0.000000 -4.698426 -2.619808 0.750662 -19.024238 0.419027 2.149517 14.748601 29.749560 -3.499174 -20.709350 -46.705212 -19.988865 0.000000 0.000000 0.000000 0.000000 0.000000 0.000000 -0.643497 3.388966 0.252313 -3.068314 -35.320086 -2.746490 43.574668 45.323480 -37.353735 -15.622338 -12.930548 2.211756 0.000000 0.000000 0.000000 0.000000 0.000000 0.000000 5.746913 -4.261594 43.288962 -1.575062 3.873142 -1.186104 -2.366187 4.110334 1.607994 0.000000 0.000000 0.000000 5.463092 -5.362758 42.501713 -0.637158 5.876458 -0.666765 -3.033183 0.777541 2.756418 0.000000 0.000000 0.000000
-27.209782 85.003821 322.805389 -0.537880 2.254916 -41.987734 0.670965 0.713145 41.981622 -0.025727 0.276087 0.013201 0.590774 -1.685502 -0.357369 0.000000 0.000000 0.000000 -5.610753 -2.754370 0.984556 -19.162146 0.806140 2.293170 15.430745 25.709781 -5.043175 -19.964039 -41.781585 -15.156639 0.000000 0.000000 0.000000 0.000000 0.000000 0.000000 -0.307478 2.448993 0.257436 -4.552954 -34.074316 -2.481597 47.923872 42.261432 -36.153548 -21.787400 -5.228622 -4.585654 0.000000 0.000000 0.000000 0.000000 0.000000 0.000000 5.866647 -4.467256 43.619657 -1.386345 3.655030 -1.137675 -1.226997 4.139161 1.447260 0.000000 0.000000 0.000000 5.383286 -5.749419 42.732647 -0.335837 5.950771 -0.610947 -3.911415 1.393847 3.471091 0.000000 0.000000 0.000000
-27.017531 85.047212 322.822116 -0.403264 2.135993 -41.521479 0.504179 0.805917 41.512748 0.022240 0.465267 0.017421 0.329407 -2.095514 -0.302757 0.000000 0.000000 0.000000 -6.485515 -3.016053 1.087425 -18.335904 1.004138 2.240351 12.373706 24.769071 -7.199623 -13.917672 -39.171125 -7.542647 0.000000 0.000000 0.000000 0.000000 0.000000 0.000000 -0.607839 0.858508 0.154639 -5.280472 -30.786401 -1.785668 47.993156 38.906346 -32.445435 -21.791717 -2.477549 -6.831066 0.000000 0.000000 0.000000 0.000000 0.000000 0.000000 4.871298 -3.979183 42.837546 -1.210470 2.312520 -0.818480 0.942564 3.558674 0.895525 0.000000 0.000000 0.000000 4.668721 -5.962095 42.107909 0.103755 5.735301 -0.501781 -4.893863 1.930456 4.235720 0.000000 0.000000 0.000000
-26.979963 85.068793 323.003721 -0.592418 1.708619 -39.991030 0.235336 0.567529 39.963273 -0.384945 0.186946 -0.051063 0.435567 -2.178626 0.098379 0.000000 0.000000 0.000000 -6.926719 -3.190702 1.564568 -17.464023 1.919516 2.243304 11.195567 25.120234 -8.330466 -12.007895 -37.801382 -3.644527 0.000000 0.000000 0.000000 0.000000 0.000000 0.000000 -0.328486 0.407952 0.079358 -5.336647 -26.915479 -0.853672 44.702127 33.529198 -23.756899 -24.447340 5.454224 -11.179140 0.000000 0.000000 0.000000 0.000000 0.000000 0.000000 4.030965 -2.846374 40.949858 -1.306194 1.352048 -0.557851 3.441504 1.754874 0.057378 0.000000 0.000000 0.000000 3.809268 -5.633217 40.378562 0.564376 5.378587 -0.393093 -6.240121 2.646997 5.256099 0.000000 0.000000 0.000000
-27.084342 85.019638 323.413515 -1.183154 0.908760 -38.115067 -0.100586 0.319034 38.057886 -0.743379 -0.046495 -0.139447 1.243519 -3.311598 1.013333 0.000000 0.000000 0.000000 -7.726303 -3.556242 2.287653 -15.719958 3.362774 2.185440 8.190080 23.660989 -11.077234 -7.339383 -36.342920 1.715237 0.000000 0.000000 0.000000 0.000000 0.000000 0.000000 0.182260 0.082326 -0.005566 -5.110094 -23.531329 0.046162 46.756556 31.940646 -24.506876 -27.300627 -1.299547 -8.381786 0.000000 0.000000 0.000000 0.000000 0.000000 0.000000 3.526854 -1.086307 38.729163 -1.758701 0.948826 -0.437299 5.644355 -0.589312 -0.601777 0.000000 0.000000 0.000000 2.959271 -4.363822 38.288017 1.562880 4.346198 -0.167359 -9.006389 4.206766 6.771379 0.000000 0.000000 0.000000
-27.365523 85.111332 323.729175 -2.172259 0.237731 -36.884394 -0.314829 0.156302 36.785468 -1.225694 -0.523006 -0.258824 1.259680 -6.073041 2.569184 0.000000 0.000000 0.000000 -7.680732 -3.621543 2.977278 -15.888418 4.459809 2.347326 12.536346 23.536533 -9.759457 -9.028049 -36.129964 -0.686502 0.000000 0.000000 0.000000 0.000000 0.000000 0.000000 1.164577 -0.070147 -0.050588 -4.573409 -20.399565 0.774336 50.343969 33.220394 -31.039472 -26.748656 -16.901232 -0.832156 0.000000 0.000000 0.000000 0.000000 0.000000 0.000000 4.846873 0.770369 37.369056 -3.527329 1.706977 -0.617769 7.323322 -2.678249 -0.848883 0.000000 0.000000 0.000000 2.416112 -2.853400 36.807447 1.949854 3.496610 0.011797 -9.948724 2.162984 6.780806 0.000000 0.000000 0.000000
-28.197625 84.729865 324.862577 -4.212206 -1.872367 -33.332264 -0.437874 0.088069 33.124638 -1.461924 -0.742961 -0.393598 0.763280 -7.653960 4.101445 0.000000 0.000000 0.000000 -10.005545 -3.900874 4.574938 -14.083685 6.247265 1.743983 16.497453 23.621906 -9.291968 -12.484536 -35.799492 -2.212617 0.000000 0.000000 0.000000 0.000000 0.000000 0.000000 2.365738 1.545582 -0.098211 -3.636894 -18.080252 1.451888 52.660712 34.367194 -36.804109 -22.599617 -31.471199 8.508957 0.000000 0.000000 0.000000 0.000000 0.000000 0.000000 5.691237 5.232475 33.039275 -4.547014 1.585923 -0.479144 6.590419 -5.134409 -1.195785 0.000000 0.000000 0.000000 1.969811 0.973737 32.969849 2.021255 2.147701 0.193478 -11.806762 2.088776 7.960118 0.000000 0.000000 0.000000
-29.319096 84.267255 326.409583 -7.072956 -4.833404 -26.486479 -0.371278 -0.015297 26.003055 -1.557744 -0.976936 -0.547014 -0.132183 -8.014402 5.609819 0.000000 0.000000 0.000000 -12.748843 -4.068425 6.752292 -12.782837 7.297922 0.033255 19.479439 31.334172 -8.031585 -14.431763 -43.374608 -7.427049 0.000000 0.000000 0.000000 0.000000 0.000000 0.000000 3.902351 3.920435 -0.187208 -2.414717 -15.701542 2.110783 52.773694 37.171267 -44.447835 -7.886333 -43.686057 25.170867 0.000000 0.000000 0.000000 0.000000 0.000000 0.000000 7.526961 11.438385 24.669145 -5.042995 -0.125552 0.083753 3.050278 -4.229369 -0.332382 0.000000 0.000000 0.000000 2.629624 5.500065 25.691386 4.482558 1.443198 0.346275 -10.649656 4.102976 6.395112 0.000000 0.000000 0.000000
